<svg width="437" height="55" viewBox="0 0 437 55" fill="none" xmlns="http://www.w3.org/2000/svg">
<path d="M1.248 52V43.048H1.26L5.808 49.504L5.316 49.408L9.852 43.048H9.876V52H8.724V45.688L8.796 46.276L5.52 50.908H5.496L2.172 46.276L2.376 45.736V52H1.248ZM11.6611 49.468C11.6611 48.972 11.7771 48.524 12.0091 48.124C12.2491 47.724 12.5771 47.408 12.9931 47.176C13.4091 46.944 13.8811 46.828 14.4091 46.828C14.9531 46.828 15.4291 46.944 15.8371 47.176C16.2451 47.408 16.5611 47.724 16.7851 48.124C17.0091 48.524 17.1211 48.972 17.1211 49.468C17.1211 49.964 17.0091 50.416 16.7851 50.824C16.5611 51.224 16.2411 51.54 15.8251 51.772C15.4171 52.004 14.9411 52.12 14.3971 52.12C13.8691 52.12 13.3971 52.012 12.9811 51.796C12.5731 51.572 12.2491 51.264 12.0091 50.872C11.7771 50.472 11.6611 50.004 11.6611 49.468ZM12.7771 49.48C12.7771 49.8 12.8491 50.092 12.9931 50.356C13.1371 50.612 13.3291 50.816 13.5691 50.968C13.8171 51.12 14.0891 51.196 14.3851 51.196C14.6971 51.196 14.9731 51.12 15.2131 50.968C15.4611 50.816 15.6531 50.612 15.7891 50.356C15.9251 50.092 15.9931 49.8 15.9931 49.48C15.9931 49.16 15.9251 48.872 15.7891 48.616C15.6531 48.352 15.4611 48.144 15.2131 47.992C14.9731 47.832 14.6971 47.752 14.3851 47.752C14.0811 47.752 13.8051 47.832 13.5571 47.992C13.3171 48.152 13.1251 48.364 12.9811 48.628C12.8451 48.884 12.7771 49.168 12.7771 49.48ZM20.4958 52.144L17.7358 47.032H19.0558L20.9278 50.98L20.2438 50.956L21.9598 47.032H23.2078L20.5558 52.144H20.4958ZM26.5963 52.12C26.0283 52.12 25.5403 52.008 25.1323 51.784C24.7243 51.552 24.4083 51.24 24.1843 50.848C23.9683 50.448 23.8603 49.992 23.8603 49.48C23.8603 48.992 23.9843 48.548 24.2323 48.148C24.4803 47.748 24.8123 47.428 25.2283 47.188C25.6443 46.948 26.1083 46.828 26.6203 46.828C27.2763 46.828 27.8203 47.02 28.2523 47.404C28.6843 47.788 28.9763 48.316 29.1283 48.988L25.0363 50.428L24.7723 49.768L28.1323 48.544L27.8923 48.7C27.7963 48.436 27.6363 48.208 27.4123 48.016C27.1883 47.816 26.8963 47.716 26.5363 47.716C26.2323 47.716 25.9603 47.792 25.7203 47.944C25.4803 48.088 25.2923 48.288 25.1563 48.544C25.0203 48.8 24.9523 49.092 24.9523 49.42C24.9523 49.764 25.0243 50.068 25.1683 50.332C25.3123 50.588 25.5083 50.792 25.7563 50.944C26.0123 51.088 26.3003 51.16 26.6203 51.16C26.8363 51.16 27.0443 51.12 27.2443 51.04C27.4523 50.96 27.6443 50.856 27.8203 50.728L28.3363 51.556C28.0883 51.724 27.8083 51.86 27.4963 51.964C27.1923 52.068 26.8923 52.12 26.5963 52.12Z" fill="white"/>
<path d="M157.708 47.668C157.708 47.068 157.82 46.504 158.044 45.976C158.276 45.44 158.596 44.968 159.004 44.56C159.412 44.144 159.88 43.82 160.408 43.588C160.944 43.348 161.52 43.228 162.136 43.228C162.744 43.228 163.312 43.348 163.84 43.588C164.376 43.82 164.848 44.144 165.256 44.56C165.672 44.968 165.996 45.44 166.228 45.976C166.46 46.504 166.576 47.068 166.576 47.668C166.576 48.284 166.46 48.86 166.228 49.396C165.996 49.932 165.672 50.404 165.256 50.812C164.848 51.212 164.376 51.528 163.84 51.76C163.312 51.984 162.744 52.096 162.136 52.096C161.52 52.096 160.944 51.984 160.408 51.76C159.88 51.536 159.412 51.224 159.004 50.824C158.596 50.424 158.276 49.956 158.044 49.42C157.82 48.884 157.708 48.3 157.708 47.668ZM158.908 47.68C158.908 48.136 158.992 48.564 159.16 48.964C159.328 49.356 159.56 49.704 159.856 50.008C160.152 50.312 160.496 50.552 160.888 50.728C161.28 50.896 161.704 50.98 162.16 50.98C162.608 50.98 163.028 50.896 163.42 50.728C163.812 50.552 164.152 50.312 164.44 50.008C164.728 49.704 164.956 49.356 165.124 48.964C165.292 48.564 165.376 48.132 165.376 47.668C165.376 47.212 165.292 46.784 165.124 46.384C164.956 45.976 164.724 45.62 164.428 45.316C164.132 45.012 163.788 44.776 163.396 44.608C163.004 44.432 162.584 44.344 162.136 44.344C161.68 44.344 161.256 44.432 160.864 44.608C160.472 44.784 160.128 45.024 159.832 45.328C159.536 45.632 159.308 45.988 159.148 46.396C158.988 46.796 158.908 47.224 158.908 47.68ZM171.189 52.12C170.813 52.12 170.449 52.032 170.097 51.856C169.753 51.68 169.485 51.444 169.293 51.148L169.365 50.8V54.388H168.261V46.96H169.221L169.377 48.232L169.257 47.884C169.497 47.58 169.801 47.328 170.169 47.128C170.537 46.928 170.949 46.828 171.405 46.828C171.869 46.828 172.285 46.94 172.653 47.164C173.029 47.388 173.325 47.7 173.541 48.1C173.757 48.5 173.865 48.968 173.865 49.504C173.865 50.04 173.749 50.504 173.517 50.896C173.285 51.288 172.965 51.592 172.557 51.808C172.157 52.016 171.701 52.12 171.189 52.12ZM170.973 51.232C171.293 51.232 171.585 51.16 171.849 51.016C172.121 50.864 172.337 50.66 172.497 50.404C172.657 50.14 172.737 49.844 172.737 49.516C172.737 49.18 172.661 48.884 172.509 48.628C172.357 48.364 172.153 48.156 171.897 48.004C171.649 47.852 171.369 47.776 171.057 47.776C170.769 47.776 170.509 47.832 170.277 47.944C170.045 48.056 169.853 48.212 169.701 48.412C169.549 48.604 169.441 48.828 169.377 49.084V49.912C169.417 50.168 169.513 50.396 169.665 50.596C169.817 50.796 170.005 50.952 170.229 51.064C170.461 51.176 170.709 51.232 170.973 51.232ZM177.678 52.12C177.11 52.12 176.622 52.008 176.214 51.784C175.806 51.552 175.49 51.24 175.266 50.848C175.05 50.448 174.942 49.992 174.942 49.48C174.942 48.992 175.066 48.548 175.314 48.148C175.562 47.748 175.894 47.428 176.31 47.188C176.726 46.948 177.19 46.828 177.702 46.828C178.358 46.828 178.902 47.02 179.334 47.404C179.766 47.788 180.058 48.316 180.21 48.988L176.118 50.428L175.854 49.768L179.214 48.544L178.974 48.7C178.878 48.436 178.718 48.208 178.494 48.016C178.27 47.816 177.978 47.716 177.618 47.716C177.314 47.716 177.042 47.792 176.802 47.944C176.562 48.088 176.374 48.288 176.238 48.544C176.102 48.8 176.034 49.092 176.034 49.42C176.034 49.764 176.106 50.068 176.25 50.332C176.394 50.588 176.59 50.792 176.838 50.944C177.094 51.088 177.382 51.16 177.702 51.16C177.918 51.16 178.126 51.12 178.326 51.04C178.534 50.96 178.726 50.856 178.902 50.728L179.418 51.556C179.17 51.724 178.89 51.86 178.578 51.964C178.274 52.068 177.974 52.12 177.678 52.12ZM182.605 47.032L182.701 48.244L182.653 48.052C182.813 47.684 183.073 47.392 183.433 47.176C183.793 46.952 184.209 46.84 184.681 46.84C185.153 46.84 185.537 46.98 185.833 47.26C186.137 47.532 186.293 47.888 186.301 48.328V52H185.173V48.724C185.165 48.452 185.085 48.232 184.933 48.064C184.789 47.888 184.561 47.8 184.249 47.8C183.961 47.8 183.701 47.88 183.469 48.04C183.237 48.2 183.053 48.42 182.917 48.7C182.789 48.98 182.725 49.304 182.725 49.672V52H181.609V47.032H182.605ZM191.866 43.06C191.306 44.588 190.746 46.116 190.186 47.644C189.626 49.172 189.062 50.7 188.494 52.228H187.474C188.042 50.7 188.606 49.172 189.166 47.644C189.726 46.116 190.29 44.588 190.858 43.06H191.866ZM199.495 51.352C199.351 51.448 199.155 51.556 198.907 51.676C198.659 51.796 198.367 51.896 198.031 51.976C197.703 52.056 197.343 52.096 196.951 52.096C196.279 52.088 195.671 51.968 195.127 51.736C194.591 51.504 194.135 51.188 193.759 50.788C193.383 50.388 193.091 49.928 192.883 49.408C192.683 48.88 192.583 48.32 192.583 47.728C192.583 47.08 192.687 46.484 192.895 45.94C193.111 45.388 193.411 44.912 193.795 44.512C194.179 44.104 194.631 43.788 195.151 43.564C195.679 43.34 196.255 43.228 196.879 43.228C197.399 43.228 197.871 43.3 198.295 43.444C198.719 43.58 199.083 43.744 199.387 43.936L198.919 45.016C198.679 44.856 198.387 44.704 198.043 44.56C197.707 44.416 197.331 44.344 196.915 44.344C196.491 44.344 196.091 44.428 195.715 44.596C195.339 44.764 195.007 45 194.719 45.304C194.431 45.608 194.203 45.964 194.035 46.372C193.875 46.772 193.795 47.204 193.795 47.668C193.795 48.14 193.867 48.58 194.011 48.988C194.163 49.388 194.375 49.736 194.647 50.032C194.927 50.328 195.263 50.56 195.655 50.728C196.047 50.896 196.487 50.98 196.975 50.98C197.415 50.98 197.807 50.912 198.151 50.776C198.495 50.64 198.779 50.488 199.003 50.32L199.495 51.352ZM201.179 42.712H202.295V52H201.179V42.712ZM203.794 49.468C203.794 48.972 203.91 48.524 204.142 48.124C204.382 47.724 204.71 47.408 205.126 47.176C205.542 46.944 206.014 46.828 206.542 46.828C207.086 46.828 207.562 46.944 207.97 47.176C208.378 47.408 208.694 47.724 208.918 48.124C209.142 48.524 209.254 48.972 209.254 49.468C209.254 49.964 209.142 50.416 208.918 50.824C208.694 51.224 208.374 51.54 207.958 51.772C207.55 52.004 207.074 52.12 206.53 52.12C206.002 52.12 205.53 52.012 205.114 51.796C204.706 51.572 204.382 51.264 204.142 50.872C203.91 50.472 203.794 50.004 203.794 49.468ZM204.91 49.48C204.91 49.8 204.982 50.092 205.126 50.356C205.27 50.612 205.462 50.816 205.702 50.968C205.95 51.12 206.222 51.196 206.518 51.196C206.83 51.196 207.106 51.12 207.346 50.968C207.594 50.816 207.786 50.612 207.922 50.356C208.058 50.092 208.126 49.8 208.126 49.48C208.126 49.16 208.058 48.872 207.922 48.616C207.786 48.352 207.594 48.144 207.346 47.992C207.106 47.832 206.83 47.752 206.518 47.752C206.214 47.752 205.938 47.832 205.69 47.992C205.45 48.152 205.258 48.364 205.114 48.628C204.978 48.884 204.91 49.168 204.91 49.48ZM212.157 52.096C211.805 52.096 211.461 52.036 211.125 51.916C210.797 51.788 210.525 51.6 210.309 51.352L210.777 50.704C210.985 50.904 211.197 51.056 211.413 51.16C211.637 51.256 211.857 51.304 212.073 51.304C212.233 51.304 212.381 51.284 212.517 51.244C212.653 51.204 212.761 51.14 212.841 51.052C212.929 50.956 212.973 50.828 212.973 50.668C212.973 50.492 212.913 50.352 212.793 50.248C212.681 50.144 212.533 50.06 212.349 49.996C212.173 49.932 211.985 49.872 211.785 49.816C211.377 49.68 211.065 49.492 210.849 49.252C210.633 49.012 210.525 48.72 210.525 48.376C210.525 48.112 210.589 47.868 210.717 47.644C210.853 47.412 211.049 47.224 211.305 47.08C211.569 46.936 211.893 46.864 212.277 46.864C212.621 46.864 212.929 46.908 213.201 46.996C213.473 47.076 213.729 47.212 213.969 47.404L213.525 48.1C213.381 47.948 213.209 47.836 213.009 47.764C212.809 47.692 212.629 47.652 212.469 47.644C212.333 47.636 212.201 47.656 212.073 47.704C211.953 47.752 211.853 47.82 211.773 47.908C211.693 47.996 211.653 48.1 211.653 48.22C211.653 48.388 211.709 48.524 211.821 48.628C211.933 48.732 212.077 48.816 212.253 48.88C212.437 48.936 212.617 48.996 212.793 49.06C213.041 49.132 213.261 49.228 213.453 49.348C213.645 49.468 213.797 49.616 213.909 49.792C214.029 49.968 214.089 50.188 214.089 50.452C214.089 50.748 214.017 51.024 213.873 51.28C213.737 51.528 213.525 51.728 213.237 51.88C212.957 52.024 212.597 52.096 212.157 52.096ZM217.956 52.12C217.388 52.12 216.9 52.008 216.492 51.784C216.084 51.552 215.768 51.24 215.544 50.848C215.328 50.448 215.22 49.992 215.22 49.48C215.22 48.992 215.344 48.548 215.592 48.148C215.84 47.748 216.172 47.428 216.588 47.188C217.004 46.948 217.468 46.828 217.98 46.828C218.636 46.828 219.18 47.02 219.612 47.404C220.044 47.788 220.336 48.316 220.488 48.988L216.396 50.428L216.132 49.768L219.492 48.544L219.252 48.7C219.156 48.436 218.996 48.208 218.772 48.016C218.548 47.816 218.256 47.716 217.896 47.716C217.592 47.716 217.32 47.792 217.08 47.944C216.84 48.088 216.652 48.288 216.516 48.544C216.38 48.8 216.312 49.092 216.312 49.42C216.312 49.764 216.384 50.068 216.528 50.332C216.672 50.588 216.868 50.792 217.116 50.944C217.372 51.088 217.66 51.16 217.98 51.16C218.196 51.16 218.404 51.12 218.604 51.04C218.812 50.96 219.004 50.856 219.18 50.728L219.696 51.556C219.448 51.724 219.168 51.86 218.856 51.964C218.552 52.068 218.252 52.12 217.956 52.12ZM225.959 52V43.048H225.971L230.519 49.504L230.027 49.408L234.563 43.048H234.587V52H233.435V45.688L233.507 46.276L230.231 50.908H230.207L226.883 46.276L227.087 45.736V52H225.959ZM239.108 52.12C238.54 52.12 238.052 52.008 237.644 51.784C237.236 51.552 236.92 51.24 236.696 50.848C236.48 50.448 236.372 49.992 236.372 49.48C236.372 48.992 236.496 48.548 236.744 48.148C236.992 47.748 237.324 47.428 237.74 47.188C238.156 46.948 238.62 46.828 239.132 46.828C239.788 46.828 240.332 47.02 240.764 47.404C241.196 47.788 241.488 48.316 241.64 48.988L237.548 50.428L237.284 49.768L240.644 48.544L240.404 48.7C240.308 48.436 240.148 48.208 239.924 48.016C239.7 47.816 239.408 47.716 239.048 47.716C238.744 47.716 238.472 47.792 238.232 47.944C237.992 48.088 237.804 48.288 237.668 48.544C237.532 48.8 237.464 49.092 237.464 49.42C237.464 49.764 237.536 50.068 237.68 50.332C237.824 50.588 238.02 50.792 238.268 50.944C238.524 51.088 238.812 51.16 239.132 51.16C239.348 51.16 239.556 51.12 239.756 51.04C239.964 50.96 240.156 50.856 240.332 50.728L240.848 51.556C240.6 51.724 240.32 51.86 240.008 51.964C239.704 52.068 239.404 52.12 239.108 52.12ZM244.034 47.032L244.13 48.244L244.082 48.052C244.242 47.684 244.502 47.392 244.862 47.176C245.222 46.952 245.638 46.84 246.11 46.84C246.582 46.84 246.966 46.98 247.262 47.26C247.566 47.532 247.722 47.888 247.73 48.328V52H246.602V48.724C246.594 48.452 246.514 48.232 246.362 48.064C246.218 47.888 245.99 47.8 245.678 47.8C245.39 47.8 245.13 47.88 244.898 48.04C244.666 48.2 244.482 48.42 244.346 48.7C244.218 48.98 244.154 49.304 244.154 49.672V52H243.038V47.032H244.034ZM251.243 52.192C250.795 52.192 250.423 52.056 250.127 51.784C249.839 51.504 249.687 51.144 249.671 50.704V47.032H250.787V50.308C250.803 50.58 250.879 50.8 251.015 50.968C251.159 51.136 251.383 51.224 251.687 51.232C251.967 51.232 252.215 51.152 252.431 50.992C252.655 50.824 252.835 50.6 252.971 50.32C253.107 50.032 253.175 49.708 253.175 49.348V47.032H254.291V52H253.271L253.175 50.776L253.235 50.992C253.139 51.224 252.991 51.432 252.791 51.616C252.599 51.792 252.371 51.932 252.107 52.036C251.843 52.14 251.555 52.192 251.243 52.192Z" fill="white"/>
<path d="M346.736 44.872C346.44 44.72 346.116 44.588 345.764 44.476C345.412 44.364 345.068 44.308 344.732 44.308C344.268 44.308 343.896 44.416 343.616 44.632C343.344 44.848 343.208 45.136 343.208 45.496C343.208 45.768 343.296 46 343.472 46.192C343.648 46.376 343.88 46.536 344.168 46.672C344.456 46.808 344.756 46.936 345.068 47.056C345.34 47.16 345.608 47.276 345.872 47.404C346.136 47.532 346.372 47.692 346.58 47.884C346.796 48.076 346.964 48.312 347.084 48.592C347.212 48.872 347.276 49.22 347.276 49.636C347.276 50.092 347.16 50.508 346.928 50.884C346.704 51.26 346.38 51.556 345.956 51.772C345.532 51.988 345.028 52.096 344.444 52.096C344.06 52.096 343.692 52.052 343.34 51.964C342.996 51.876 342.676 51.764 342.38 51.628C342.084 51.484 341.82 51.336 341.588 51.184L342.104 50.272C342.296 50.408 342.516 50.54 342.764 50.668C343.012 50.788 343.272 50.888 343.544 50.968C343.816 51.04 344.08 51.076 344.336 51.076C344.608 51.076 344.876 51.028 345.14 50.932C345.412 50.828 345.636 50.672 345.812 50.464C345.988 50.256 346.076 49.98 346.076 49.636C346.076 49.34 345.996 49.096 345.836 48.904C345.684 48.704 345.48 48.536 345.224 48.4C344.968 48.256 344.696 48.128 344.408 48.016C344.136 47.912 343.86 47.8 343.58 47.68C343.3 47.552 343.04 47.4 342.8 47.224C342.56 47.04 342.368 46.816 342.224 46.552C342.08 46.288 342.008 45.968 342.008 45.592C342.008 45.136 342.116 44.74 342.332 44.404C342.556 44.06 342.86 43.792 343.244 43.6C343.628 43.4 344.068 43.292 344.564 43.276C345.124 43.276 345.616 43.344 346.04 43.48C346.472 43.616 346.852 43.784 347.18 43.984L346.736 44.872ZM351.26 52.12C350.692 52.12 350.204 52.008 349.796 51.784C349.388 51.552 349.072 51.24 348.848 50.848C348.632 50.448 348.524 49.992 348.524 49.48C348.524 48.992 348.648 48.548 348.896 48.148C349.144 47.748 349.476 47.428 349.892 47.188C350.308 46.948 350.772 46.828 351.284 46.828C351.94 46.828 352.484 47.02 352.916 47.404C353.348 47.788 353.64 48.316 353.792 48.988L349.7 50.428L349.436 49.768L352.796 48.544L352.556 48.7C352.46 48.436 352.3 48.208 352.076 48.016C351.852 47.816 351.56 47.716 351.2 47.716C350.896 47.716 350.624 47.792 350.384 47.944C350.144 48.088 349.956 48.288 349.82 48.544C349.684 48.8 349.616 49.092 349.616 49.42C349.616 49.764 349.688 50.068 349.832 50.332C349.976 50.588 350.172 50.792 350.42 50.944C350.676 51.088 350.964 51.16 351.284 51.16C351.5 51.16 351.708 51.12 351.908 51.04C352.116 50.96 352.308 50.856 352.484 50.728L353 51.556C352.752 51.724 352.472 51.86 352.16 51.964C351.856 52.068 351.556 52.12 351.26 52.12ZM357.495 52.12C356.927 52.12 356.439 52.008 356.031 51.784C355.623 51.552 355.307 51.24 355.083 50.848C354.867 50.448 354.759 49.992 354.759 49.48C354.759 48.992 354.883 48.548 355.131 48.148C355.379 47.748 355.711 47.428 356.127 47.188C356.543 46.948 357.007 46.828 357.519 46.828C358.175 46.828 358.719 47.02 359.151 47.404C359.583 47.788 359.875 48.316 360.027 48.988L355.935 50.428L355.671 49.768L359.031 48.544L358.791 48.7C358.695 48.436 358.535 48.208 358.311 48.016C358.087 47.816 357.795 47.716 357.435 47.716C357.131 47.716 356.859 47.792 356.619 47.944C356.379 48.088 356.191 48.288 356.055 48.544C355.919 48.8 355.851 49.092 355.851 49.42C355.851 49.764 355.923 50.068 356.067 50.332C356.211 50.588 356.407 50.792 356.655 50.944C356.911 51.088 357.199 51.16 357.519 51.16C357.735 51.16 357.943 51.12 358.143 51.04C358.351 50.96 358.543 50.856 358.719 50.728L359.235 51.556C358.987 51.724 358.707 51.86 358.395 51.964C358.091 52.068 357.791 52.12 357.495 52.12ZM367.238 52.12C366.782 52.12 366.366 52.012 365.99 51.796C365.622 51.572 365.33 51.26 365.114 50.86C364.898 50.452 364.79 49.984 364.79 49.456C364.79 48.904 364.902 48.432 365.126 48.04C365.358 47.648 365.67 47.348 366.062 47.14C366.454 46.932 366.894 46.828 367.382 46.828C367.774 46.828 368.146 46.912 368.498 47.08C368.858 47.248 369.138 47.48 369.338 47.776L369.29 48.172V42.712H370.394V52H369.278V50.764L369.398 51.076C369.166 51.38 368.866 51.632 368.498 51.832C368.13 52.024 367.71 52.12 367.238 52.12ZM367.586 51.172C367.882 51.172 368.146 51.12 368.378 51.016C368.61 50.904 368.802 50.752 368.954 50.56C369.106 50.368 369.214 50.14 369.278 49.876V48.94C369.214 48.7 369.098 48.492 368.93 48.316C368.77 48.132 368.574 47.988 368.342 47.884C368.118 47.772 367.866 47.716 367.586 47.716C367.282 47.716 367.002 47.792 366.746 47.944C366.498 48.088 366.298 48.288 366.146 48.544C365.994 48.8 365.918 49.096 365.918 49.432C365.918 49.76 365.994 50.056 366.146 50.32C366.298 50.576 366.502 50.784 366.758 50.944C367.014 51.096 367.29 51.172 367.586 51.172ZM374.639 52.12C374.071 52.12 373.583 52.008 373.175 51.784C372.767 51.552 372.451 51.24 372.227 50.848C372.011 50.448 371.903 49.992 371.903 49.48C371.903 48.992 372.027 48.548 372.275 48.148C372.523 47.748 372.855 47.428 373.271 47.188C373.687 46.948 374.151 46.828 374.663 46.828C375.319 46.828 375.863 47.02 376.295 47.404C376.727 47.788 377.019 48.316 377.171 48.988L373.079 50.428L372.815 49.768L376.175 48.544L375.935 48.7C375.839 48.436 375.679 48.208 375.455 48.016C375.231 47.816 374.939 47.716 374.579 47.716C374.275 47.716 374.003 47.792 373.763 47.944C373.523 48.088 373.335 48.288 373.199 48.544C373.063 48.8 372.995 49.092 372.995 49.42C372.995 49.764 373.067 50.068 373.211 50.332C373.355 50.588 373.551 50.792 373.799 50.944C374.055 51.088 374.343 51.16 374.663 51.16C374.879 51.16 375.087 51.12 375.287 51.04C375.495 50.96 375.687 50.856 375.863 50.728L376.379 51.556C376.131 51.724 375.851 51.86 375.539 51.964C375.235 52.068 374.935 52.12 374.639 52.12ZM379.05 44.848H380.166V47.056H381.534V47.932H380.166V52H379.05V47.932H378.138V47.056H379.05V44.848ZM384.946 52.12C384.482 52.12 384.058 52.02 383.674 51.82C383.298 51.62 382.998 51.328 382.774 50.944C382.558 50.552 382.45 50.076 382.45 49.516C382.45 48.964 382.566 48.488 382.798 48.088C383.03 47.68 383.338 47.368 383.722 47.152C384.114 46.936 384.542 46.828 385.006 46.828C385.47 46.828 385.862 46.936 386.182 47.152C386.502 47.36 386.746 47.608 386.914 47.896L386.842 48.088L386.95 47.032H387.982V52H386.866V50.704L386.986 50.992C386.954 51.072 386.882 51.176 386.77 51.304C386.666 51.424 386.522 51.548 386.338 51.676C386.162 51.804 385.958 51.912 385.726 52C385.494 52.08 385.234 52.12 384.946 52.12ZM385.246 51.196C385.526 51.196 385.778 51.144 386.002 51.04C386.226 50.936 386.41 50.792 386.554 50.608C386.706 50.416 386.81 50.188 386.866 49.924V48.952C386.802 48.712 386.69 48.504 386.53 48.328C386.37 48.144 386.178 48.004 385.954 47.908C385.73 47.804 385.482 47.752 385.21 47.752C384.914 47.752 384.642 47.824 384.394 47.968C384.146 48.112 383.946 48.312 383.794 48.568C383.65 48.824 383.578 49.124 383.578 49.468C383.578 49.788 383.654 50.08 383.806 50.344C383.958 50.608 384.162 50.816 384.418 50.968C384.674 51.12 384.95 51.196 385.246 51.196ZM389.913 47.032H391.029V52H389.913V47.032ZM389.829 45.232C389.829 45.056 389.897 44.908 390.033 44.788C390.177 44.668 390.333 44.608 390.501 44.608C390.669 44.608 390.817 44.668 390.945 44.788C391.081 44.908 391.149 45.056 391.149 45.232C391.149 45.416 391.081 45.568 390.945 45.688C390.817 45.8 390.669 45.856 390.501 45.856C390.333 45.856 390.177 45.796 390.033 45.676C389.897 45.556 389.829 45.408 389.829 45.232ZM392.96 42.712H394.076V52H392.96V42.712ZM397.399 52.096C397.047 52.096 396.703 52.036 396.367 51.916C396.039 51.788 395.767 51.6 395.551 51.352L396.019 50.704C396.227 50.904 396.439 51.056 396.655 51.16C396.879 51.256 397.099 51.304 397.315 51.304C397.475 51.304 397.623 51.284 397.759 51.244C397.895 51.204 398.003 51.14 398.083 51.052C398.171 50.956 398.215 50.828 398.215 50.668C398.215 50.492 398.155 50.352 398.035 50.248C397.923 50.144 397.775 50.06 397.591 49.996C397.415 49.932 397.227 49.872 397.027 49.816C396.619 49.68 396.307 49.492 396.091 49.252C395.875 49.012 395.767 48.72 395.767 48.376C395.767 48.112 395.831 47.868 395.959 47.644C396.095 47.412 396.291 47.224 396.547 47.08C396.811 46.936 397.135 46.864 397.519 46.864C397.863 46.864 398.171 46.908 398.443 46.996C398.715 47.076 398.971 47.212 399.211 47.404L398.767 48.1C398.623 47.948 398.451 47.836 398.251 47.764C398.051 47.692 397.871 47.652 397.711 47.644C397.575 47.636 397.443 47.656 397.315 47.704C397.195 47.752 397.095 47.82 397.015 47.908C396.935 47.996 396.895 48.1 396.895 48.22C396.895 48.388 396.951 48.524 397.063 48.628C397.175 48.732 397.319 48.816 397.495 48.88C397.679 48.936 397.859 48.996 398.035 49.06C398.283 49.132 398.503 49.228 398.695 49.348C398.887 49.468 399.039 49.616 399.151 49.792C399.271 49.968 399.331 50.188 399.331 50.452C399.331 50.748 399.259 51.024 399.115 51.28C398.979 51.528 398.767 51.728 398.479 51.88C398.199 52.024 397.839 52.096 397.399 52.096Z" fill="white"/>
<path d="M272.832 39.216H276.592V39.96H273.608V41.72H276.272V42.464H273.608V44.256H276.704V45H272.832V39.216ZM281.043 40.248C280.845 40.1467 280.629 40.0587 280.395 39.984C280.16 39.9093 279.931 39.872 279.707 39.872C279.397 39.872 279.149 39.944 278.963 40.088C278.781 40.232 278.691 40.424 278.691 40.664C278.691 40.8453 278.749 41 278.867 41.128C278.984 41.2507 279.139 41.3573 279.331 41.448C279.523 41.5387 279.723 41.624 279.931 41.704C280.112 41.7733 280.291 41.8507 280.467 41.936C280.643 42.0213 280.8 42.128 280.939 42.256C281.083 42.384 281.195 42.5413 281.275 42.728C281.36 42.9147 281.403 43.1467 281.403 43.424C281.403 43.728 281.325 44.0053 281.171 44.256C281.021 44.5067 280.805 44.704 280.523 44.848C280.24 44.992 279.904 45.064 279.515 45.064C279.259 45.064 279.013 45.0347 278.779 44.976C278.549 44.9173 278.336 44.8427 278.139 44.752C277.941 44.656 277.765 44.5573 277.611 44.456L277.955 43.848C278.083 43.9387 278.229 44.0267 278.395 44.112C278.56 44.192 278.733 44.2587 278.915 44.312C279.096 44.36 279.272 44.384 279.443 44.384C279.624 44.384 279.803 44.352 279.979 44.288C280.16 44.2187 280.309 44.1147 280.427 43.976C280.544 43.8373 280.603 43.6533 280.603 43.424C280.603 43.2267 280.549 43.064 280.443 42.936C280.341 42.8027 280.205 42.6907 280.035 42.6C279.864 42.504 279.683 42.4187 279.491 42.344C279.309 42.2747 279.125 42.2 278.939 42.12C278.752 42.0347 278.579 41.9333 278.419 41.816C278.259 41.6933 278.131 41.544 278.035 41.368C277.939 41.192 277.891 40.9787 277.891 40.728C277.891 40.424 277.963 40.16 278.107 39.936C278.256 39.7067 278.459 39.528 278.715 39.4C278.971 39.2667 279.264 39.1947 279.595 39.184C279.968 39.184 280.296 39.2293 280.579 39.32C280.867 39.4107 281.12 39.5227 281.339 39.656L281.043 40.248ZM286.955 44.568C286.859 44.632 286.728 44.704 286.563 44.784C286.398 44.864 286.203 44.9307 285.979 44.984C285.76 45.0373 285.52 45.064 285.259 45.064C284.811 45.0587 284.406 44.9787 284.043 44.824C283.686 44.6693 283.382 44.4587 283.131 44.192C282.88 43.9253 282.686 43.6187 282.547 43.272C282.414 42.92 282.347 42.5467 282.347 42.152C282.347 41.72 282.416 41.3227 282.555 40.96C282.699 40.592 282.899 40.2747 283.155 40.008C283.411 39.736 283.712 39.5253 284.059 39.376C284.411 39.2267 284.795 39.152 285.211 39.152C285.558 39.152 285.872 39.2 286.155 39.296C286.438 39.3867 286.68 39.496 286.883 39.624L286.571 40.344C286.411 40.2373 286.216 40.136 285.987 40.04C285.763 39.944 285.512 39.896 285.235 39.896C284.952 39.896 284.686 39.952 284.435 40.064C284.184 40.176 283.963 40.3333 283.771 40.536C283.579 40.7387 283.427 40.976 283.315 41.248C283.208 41.5147 283.155 41.8027 283.155 42.112C283.155 42.4267 283.203 42.72 283.299 42.992C283.4 43.2587 283.542 43.4907 283.723 43.688C283.91 43.8853 284.134 44.04 284.395 44.152C284.656 44.264 284.95 44.32 285.275 44.32C285.568 44.32 285.83 44.2747 286.059 44.184C286.288 44.0933 286.478 43.992 286.627 43.88L286.955 44.568Z" fill="white"/>
<rect x="70.5" y="0.5" width="25" height="25" stroke="white"/>
<rect x="70.5" y="29.5" width="25" height="25" stroke="white"/>
<rect x="99.5" y="29.5" width="25" height="25" stroke="white"/>
<rect x="267.5" y="29.5" width="25" height="25" stroke="white"/>
<rect x="41.5" y="29.5" width="25" height="25" stroke="white"/>
<rect x="411.5" y="29.5" width="25" height="25" stroke="white"/>
<path d="M83.3536 8.64645C83.1583 8.45118 82.8417 8.45118 82.6464 8.64645L79.4645 11.8284C79.2692 12.0237 79.2692 12.3403 79.4645 12.5355C79.6597 12.7308 79.9763 12.7308 80.1716 12.5355L83 9.70711L85.8284 12.5355C86.0237 12.7308 86.3403 12.7308 86.5355 12.5355C86.7308 12.3403 86.7308 12.0237 86.5355 11.8284L83.3536 8.64645ZM83 18L83.5 18L83.5 9L83 9L82.5 9L82.5 18L83 18Z" fill="white"/>
<path d="M83.3536 46.3536C83.1583 46.5488 82.8417 46.5488 82.6464 46.3536L79.4645 43.1716C79.2692 42.9763 79.2692 42.6597 79.4645 42.4645C79.6597 42.2692 79.9763 42.2692 80.1716 42.4645L83 45.2929L85.8284 42.4645C86.0237 42.2692 86.3403 42.2692 86.5355 42.4645C86.7308 42.6597 86.7308 42.9763 86.5355 43.1716L83.3536 46.3536ZM83 37L83.5 37L83.5 46L83 46L82.5 46L82.5 37L83 37Z" fill="white"/>
<path d="M116.854 41.1464C117.049 41.3417 117.049 41.6583 116.854 41.8536L113.672 45.0355C113.476 45.2308 113.16 45.2308 112.964 45.0355C112.769 44.8403 112.769 44.5237 112.964 44.3284L115.793 41.5L112.964 38.6716C112.769 38.4763 112.769 38.1597 112.964 37.9645C113.16 37.7692 113.476 37.7692 113.672 37.9645L116.854 41.1464ZM107.5 41.5V41H116.5V41.5V42H107.5V41.5Z" fill="white"/>
<path d="M48.6464 41.1464C48.4512 41.3417 48.4512 41.6583 48.6464 41.8536L51.8284 45.0355C52.0237 45.2308 52.3403 45.2308 52.5355 45.0355C52.7308 44.8403 52.7308 44.5237 52.5355 44.3284L49.7071 41.5L52.5355 38.6716C52.7308 38.4763 52.7308 38.1597 52.5355 37.9645C52.3403 37.7692 52.0237 37.7692 51.8284 37.9645L48.6464 41.1464ZM58 41.5V41H49V41.5V42H58V41.5Z" fill="white"/>
<path d="M418.646 44.6464C418.451 44.8417 418.451 45.1583 418.646 45.3536L421.828 48.5355C422.024 48.7308 422.34 48.7308 422.536 48.5355C422.731 48.3403 422.731 48.0237 422.536 47.8284L419.707 45L422.536 42.1716C422.731 41.9763 422.731 41.6597 422.536 41.4645C422.34 41.2692 422.024 41.2692 421.828 41.4645L418.646 44.6464ZM428 45V44.5H419V45V45.5H428V45Z" fill="white"/>
<line x1="427.5" y1="45" x2="427.5" y2="37" stroke="white"/>
</svg>
